<?xml version="1.0" encoding="UTF-8" standalone="no"?>
<!-- Generator: Adobe Illustrator 18.0.0, SVG Export Plug-In . SVG Version: 6.00 Build 0)  -->

<svg
   xmlns:dc="http://purl.org/dc/elements/1.1/"
   xmlns:cc="http://creativecommons.org/ns#"
   xmlns:rdf="http://www.w3.org/1999/02/22-rdf-syntax-ns#"
   xmlns:svg="http://www.w3.org/2000/svg"
   xmlns="http://www.w3.org/2000/svg"
   xmlns:sodipodi="http://sodipodi.sourceforge.net/DTD/sodipodi-0.dtd"
   xmlns:inkscape="http://www.inkscape.org/namespaces/inkscape"
   version="1.1"
   id="Layer_1"
   x="0px"
   y="0px"
   viewBox="0 0 100 100"
   enable-background="new 0 0 100 100"
   xml:space="preserve"
   inkscape:version="0.48.4 r9939"
   width="100%"
   height="100%"
   sodipodi:docname="d-reverse-icon.svg"><metadata
     id="metadata3716"><rdf:RDF><cc:Work
         rdf:about=""><dc:format>image/svg+xml</dc:format><dc:type
           rdf:resource="http://purl.org/dc/dcmitype/StillImage" /><dc:title></dc:title></cc:Work></rdf:RDF></metadata><defs
     id="defs3714" /><sodipodi:namedview
     pagecolor="#ffffff"
     bordercolor="#666666"
     borderopacity="1"
     objecttolerance="10"
     gridtolerance="10"
     guidetolerance="10"
     inkscape:pageopacity="0"
     inkscape:pageshadow="2"
     inkscape:window-width="640"
     inkscape:window-height="480"
     id="namedview3712"
     showgrid="false"
     inkscape:zoom="2.36"
     inkscape:cx="50"
     inkscape:cy="50"
     inkscape:window-x="321"
     inkscape:window-y="227"
     inkscape:window-maximized="0"
     inkscape:current-layer="Layer_1" /><path
     d="m 31.713354,40.6 2.1,2.1 c 0.6,0.6 1.5,0.6 2.1,0 l 11.1,-11 0,45.8 c 0,0.8 0.7,1.5 1.5,1.5 l 3,0 c 0.8,0 1.5,-0.7 1.5,-1.5 l 0,-45.7 11.1,11 c 0.6,0.6 1.5,0.6 2.1,0 l 2.1,-2.1 c 0.6,-0.6 0.6,-1.5 0,-2.1 l -17.3,-17.3 c -0.3,-0.3 -0.7,-0.4 -1.1,-0.4 -0.4,0 -0.8,0.2 -1.1,0.4 l -17.2,17.2 c -0.5,0.6 -0.5,1.5 0.1,2.1 z"
     id="path3706"
     style="fill:#ffffff"
     inkscape:connector-curvature="0" /></svg>