<?xml version="1.0" encoding="UTF-8" standalone="no"?>
<!-- Generator: Adobe Illustrator 18.0.0, SVG Export Plug-In . SVG Version: 6.00 Build 0)  -->

<svg
   xmlns:dc="http://purl.org/dc/elements/1.1/"
   xmlns:cc="http://creativecommons.org/ns#"
   xmlns:rdf="http://www.w3.org/1999/02/22-rdf-syntax-ns#"
   xmlns:svg="http://www.w3.org/2000/svg"
   xmlns="http://www.w3.org/2000/svg"
   xmlns:sodipodi="http://sodipodi.sourceforge.net/DTD/sodipodi-0.dtd"
   xmlns:inkscape="http://www.inkscape.org/namespaces/inkscape"
   version="1.1"
   id="Layer_1"
   x="0px"
   y="0px"
   viewBox="0 0 100 100"
   enable-background="new 0 0 100 100"
   xml:space="preserve"
   inkscape:version="0.48.4 r9939"
   width="100%"
   height="100%"
   sodipodi:docname="d-depart-N-icon.svg"><metadata
     id="metadata5374"><rdf:RDF><cc:Work
         rdf:about=""><dc:format>image/svg+xml</dc:format><dc:type
           rdf:resource="http://purl.org/dc/dcmitype/StillImage" /><dc:title></dc:title></cc:Work></rdf:RDF></metadata><defs
     id="defs5372" /><sodipodi:namedview
     pagecolor="#ffffff"
     bordercolor="#666666"
     borderopacity="1"
     objecttolerance="10"
     gridtolerance="10"
     guidetolerance="10"
     inkscape:pageopacity="0"
     inkscape:pageshadow="2"
     inkscape:window-width="1871"
     inkscape:window-height="1056"
     id="namedview5370"
     showgrid="false"
     inkscape:zoom="4.72"
     inkscape:cx="40.254239"
     inkscape:cy="66.949153"
     inkscape:window-x="49"
     inkscape:window-y="24"
     inkscape:window-maximized="1"
     inkscape:current-layer="Layer_1" /><path
     style="fill:#ffffff"
     inkscape:connector-curvature="0"
     d="m 47.978003,47.978003 c -1.121288,1.121288 -1.121288,2.922704 0,4.043992 1.121288,1.121288 2.922704,1.121288 4.043992,0 1.121288,-1.121288 1.121288,-2.922704 0,-4.043992 -1.121288,-1.121288 -2.922704,-1.121288 -4.043992,0 z M 31.618219,31.618219 c -10.146742,10.146743 -10.146742,26.616817 0,36.76356 10.146743,10.146742 26.616817,10.146742 36.76356,0 10.146742,-10.146743 10.146742,-26.616817 0,-36.76356 -10.146743,-10.146742 -26.616817,-10.146742 -36.76356,0 z m 26.433,18.38178 -8.05122,22.058135 -8.05122,-22.058135 8.05122,-22.058135 8.05122,22.058135 z"
     id="path4172" /></svg>