<?xml version="1.0" encoding="UTF-8" standalone="no"?>
<!-- Generator: Adobe Illustrator 18.0.0, SVG Export Plug-In . SVG Version: 6.00 Build 0)  -->

<svg
   xmlns:dc="http://purl.org/dc/elements/1.1/"
   xmlns:cc="http://creativecommons.org/ns#"
   xmlns:rdf="http://www.w3.org/1999/02/22-rdf-syntax-ns#"
   xmlns:svg="http://www.w3.org/2000/svg"
   xmlns="http://www.w3.org/2000/svg"
   xmlns:sodipodi="http://sodipodi.sourceforge.net/DTD/sodipodi-0.dtd"
   xmlns:inkscape="http://www.inkscape.org/namespaces/inkscape"
   version="1.1"
   id="Layer_1"
   x="0px"
   y="0px"
   viewBox="0 0 100 100"
   enable-background="new 0 0 100 100"
   xml:space="preserve"
   inkscape:version="0.48.4 r9939"
   width="100%"
   height="100%"
   sodipodi:docname="d-depart-SE-icon.svg"><metadata
     id="metadata5374"><rdf:RDF><cc:Work
         rdf:about=""><dc:format>image/svg+xml</dc:format><dc:type
           rdf:resource="http://purl.org/dc/dcmitype/StillImage" /><dc:title></dc:title></cc:Work></rdf:RDF></metadata><defs
     id="defs5372" /><sodipodi:namedview
     pagecolor="#ffffff"
     bordercolor="#666666"
     borderopacity="1"
     objecttolerance="10"
     gridtolerance="10"
     guidetolerance="10"
     inkscape:pageopacity="0"
     inkscape:pageshadow="2"
     inkscape:window-width="1871"
     inkscape:window-height="1056"
     id="namedview5370"
     showgrid="false"
     inkscape:zoom="4.72"
     inkscape:cx="40.254239"
     inkscape:cy="66.949153"
     inkscape:window-x="49"
     inkscape:window-y="24"
     inkscape:window-maximized="1"
     inkscape:current-layer="Layer_1" /><path
     style="fill:#ffffff"
     inkscape:connector-curvature="0"
     d="m 47.140465,49.999999 c 0,1.585741 1.273793,2.859534 2.859534,2.859534 1.585741,0 2.859534,-1.273793 2.859534,-2.859534 0,-1.585741 -1.273793,-2.859534 -2.859534,-2.859534 -1.585741,0 -2.859534,1.273793 -2.859534,2.859534 z m -23.136229,0 c 1e-6,14.349661 11.646102,25.995762 25.995763,25.995763 14.349661,-10e-7 25.995762,-11.646102 25.995763,-25.995763 -10e-7,-14.349661 -11.646102,-25.995762 -25.995763,-25.995763 -14.349661,1e-6 -25.995762,11.646102 -25.995763,25.995763 z m 31.688835,-5.693072 9.904385,21.290529 -21.290529,-9.904385 -9.904385,-21.290529 21.290529,9.904385 z"
     id="path4172" /></svg>