<?xml version="1.0" encoding="UTF-8" standalone="no"?>
<!-- Generator: Adobe Illustrator 18.0.0, SVG Export Plug-In . SVG Version: 6.00 Build 0)  -->

<svg
   xmlns:dc="http://purl.org/dc/elements/1.1/"
   xmlns:cc="http://creativecommons.org/ns#"
   xmlns:rdf="http://www.w3.org/1999/02/22-rdf-syntax-ns#"
   xmlns:svg="http://www.w3.org/2000/svg"
   xmlns="http://www.w3.org/2000/svg"
   xmlns:sodipodi="http://sodipodi.sourceforge.net/DTD/sodipodi-0.dtd"
   xmlns:inkscape="http://www.inkscape.org/namespaces/inkscape"
   version="1.1"
   id="Layer_1"
   x="0px"
   y="0px"
   viewBox="0 0 100 100"
   enable-background="new 0 0 100 100"
   xml:space="preserve"
   inkscape:version="0.48.4 r9939"
   width="100%"
   height="100%"
   sodipodi:docname="d-enter-roundabout-icon.svg"><metadata
     id="metadata5374"><rdf:RDF><cc:Work
         rdf:about=""><dc:format>image/svg+xml</dc:format><dc:type
           rdf:resource="http://purl.org/dc/dcmitype/StillImage" /></cc:Work></rdf:RDF></metadata><defs
     id="defs5372" /><sodipodi:namedview
     pagecolor="#ffffff"
     bordercolor="#666666"
     borderopacity="1"
     objecttolerance="10"
     gridtolerance="10"
     guidetolerance="10"
     inkscape:pageopacity="0"
     inkscape:pageshadow="2"
     inkscape:window-width="640"
     inkscape:window-height="480"
     id="namedview5370"
     showgrid="false"
     inkscape:zoom="0.417193"
     inkscape:cx="100.84746"
     inkscape:cy="66.949153"
     inkscape:window-x="49"
     inkscape:window-y="24"
     inkscape:window-maximized="0"
     inkscape:current-layer="Layer_1" /><path
     fill="#242423"
     d="M50,10c-17.4,0-31.5,14.1-31.5,31.5c0,16.3,12.4,29.8,28.5,31.4v15.6c0,0.8,0.7,1.5,1.5,1.5h3  c0.8,0,1.5-0.7,1.5-1.5V70c0-1.7-1.3-3-3-3c-14.1,0-25.5-11.4-25.5-25.5S35.9,16,50,16s25.5,11.4,25.5,25.5c0,7.8-3.5,15.1-9.7,20  l-1.2,0.9c-0.6,0.5-0.8,1.5-0.2,2.1l1.9,2.3c0.5,0.6,1.5,0.8,2.1,0.2l1.2-0.9c7.6-6,11.9-15,11.9-24.7C81.5,24.2,67.4,10,50,10z"
     id="path5360"
     style="fill:#ffffff" /></svg>