<?xml version="1.0" encoding="UTF-8" standalone="no"?>
<!-- Generator: Adobe Illustrator 18.0.0, SVG Export Plug-In . SVG Version: 6.00 Build 0)  -->

<svg
   xmlns:dc="http://purl.org/dc/elements/1.1/"
   xmlns:cc="http://creativecommons.org/ns#"
   xmlns:rdf="http://www.w3.org/1999/02/22-rdf-syntax-ns#"
   xmlns:svg="http://www.w3.org/2000/svg"
   xmlns="http://www.w3.org/2000/svg"
   xmlns:sodipodi="http://sodipodi.sourceforge.net/DTD/sodipodi-0.dtd"
   xmlns:inkscape="http://www.inkscape.org/namespaces/inkscape"
   version="1.1"
   id="Layer_1"
   x="0px"
   y="0px"
   viewBox="0 0 100 100"
   enable-background="new 0 0 100 100"
   xml:space="preserve"
   inkscape:version="0.48.4 r9939"
   width="100%"
   height="100%"
   sodipodi:docname="d-sharp-left-icon.svg"><metadata
     id="metadata4830"><rdf:RDF><cc:Work
         rdf:about=""><dc:format>image/svg+xml</dc:format><dc:type
           rdf:resource="http://purl.org/dc/dcmitype/StillImage" /></cc:Work></rdf:RDF></metadata><defs
     id="defs4828" /><sodipodi:namedview
     pagecolor="#ffffff"
     bordercolor="#666666"
     borderopacity="1"
     objecttolerance="10"
     gridtolerance="10"
     guidetolerance="10"
     inkscape:pageopacity="0"
     inkscape:pageshadow="2"
     inkscape:window-width="640"
     inkscape:window-height="480"
     id="namedview4826"
     showgrid="false"
     inkscape:zoom="2.36"
     inkscape:cx="50"
     inkscape:cy="50"
     inkscape:window-x="49"
     inkscape:window-y="24"
     inkscape:window-maximized="0"
     inkscape:current-layer="Layer_1" /><path
     fill="#242423"
     d="M63.2,30.5c-0.7-2.7-2.6-4.9-5.3-6c-3.4-1.4-7.3-0.6-9.9,2L34.6,40l1.5-12.2c0-0.4-0.1-0.8-0.3-1.1  s-0.6-0.5-1-0.6l-3-0.4c-0.8-0.1-1.6,0.5-1.7,1.3l-2.7,22.8c-0.1,0.5,0.1,0.9,0.5,1.3s0.8,0.5,1.3,0.4l22.7-3.8  c0.8-0.1,1.4-0.9,1.2-1.7l-0.5-3c-0.1-0.4-0.3-0.7-0.6-1c-0.3-0.2-0.7-0.3-1.1-0.3l-11.4,1.9l12.9-12.9c0.6-0.6,1.3-0.9,2.2-0.9  c0.5,0,1,0.1,1.2,0.2c0.5,0.2,1.9,0.9,1.9,2.9v41.6c0,0.8,0.7,1.5,1.5,1.5h3c0.8,0,1.5-0.7,1.5-1.5V31.5  C63.6,31.1,63.5,30.8,63.2,30.5z"
     id="path4812"
     style="fill:#ffffff" /></svg>