<?xml version="1.0" encoding="UTF-8" standalone="no"?>
<!-- Generator: Adobe Illustrator 18.0.0, SVG Export Plug-In . SVG Version: 6.00 Build 0)  -->

<svg
   xmlns:dc="http://purl.org/dc/elements/1.1/"
   xmlns:cc="http://creativecommons.org/ns#"
   xmlns:rdf="http://www.w3.org/1999/02/22-rdf-syntax-ns#"
   xmlns:svg="http://www.w3.org/2000/svg"
   xmlns="http://www.w3.org/2000/svg"
   xmlns:sodipodi="http://sodipodi.sourceforge.net/DTD/sodipodi-0.dtd"
   xmlns:inkscape="http://www.inkscape.org/namespaces/inkscape"
   version="1.1"
   id="Layer_1"
   x="0px"
   y="0px"
   viewBox="0 0 100 100"
   enable-background="new 0 0 100 100"
   xml:space="preserve"
   inkscape:version="0.48.4 r9939"
   width="100%"
   height="100%"
   sodipodi:docname="d-sharp-right-icon.svg"><metadata
     id="metadata4539"><rdf:RDF><cc:Work
         rdf:about=""><dc:format>image/svg+xml</dc:format><dc:type
           rdf:resource="http://purl.org/dc/dcmitype/StillImage" /></cc:Work></rdf:RDF></metadata><defs
     id="defs4537" /><sodipodi:namedview
     pagecolor="#ffffff"
     bordercolor="#666666"
     borderopacity="1"
     objecttolerance="10"
     gridtolerance="10"
     guidetolerance="10"
     inkscape:pageopacity="0"
     inkscape:pageshadow="2"
     inkscape:window-width="640"
     inkscape:window-height="480"
     id="namedview4535"
     showgrid="false"
     inkscape:zoom="2.36"
     inkscape:cx="50"
     inkscape:cy="50"
     inkscape:window-x="49"
     inkscape:window-y="24"
     inkscape:window-maximized="0"
     inkscape:current-layer="Layer_1" /><path
     fill="#242423"
     d="M34.9,30.5c0.7-2.7,2.6-4.9,5.3-6c3.4-1.4,7.3-0.6,9.9,2L63.5,40l-1.5-12.2c0-0.4,0.1-0.8,0.3-1.1  s0.6-0.5,1-0.6l3-0.4c0.8-0.1,1.6,0.5,1.7,1.3l2.7,22.8c0.1,0.5-0.1,0.9-0.5,1.3s-0.8,0.5-1.3,0.4l-22.7-3.8  c-0.8-0.1-1.4-0.9-1.2-1.7l0.5-3c0.1-0.4,0.3-0.7,0.6-1c0.3-0.2,0.7-0.3,1.1-0.3l11.4,1.9L45.9,30.8c-0.6-0.6-1.3-0.9-2.2-0.9  c-0.5,0-1,0.1-1.2,0.2c-0.5,0.2-1.9,0.9-1.9,2.9v41.6c0,0.8-0.7,1.5-1.5,1.5h-3c-0.8,0-1.5-0.7-1.5-1.5V31.5  C34.6,31.1,34.7,30.8,34.9,30.5z"
     id="path4521"
     style="fill:#ffffff" /></svg>