<?xml version="1.0" encoding="UTF-8" standalone="no"?>
<!-- Generator: Adobe Illustrator 18.0.0, SVG Export Plug-In . SVG Version: 6.00 Build 0)  -->

<svg
   xmlns:dc="http://purl.org/dc/elements/1.1/"
   xmlns:cc="http://creativecommons.org/ns#"
   xmlns:rdf="http://www.w3.org/1999/02/22-rdf-syntax-ns#"
   xmlns:svg="http://www.w3.org/2000/svg"
   xmlns="http://www.w3.org/2000/svg"
   xmlns:sodipodi="http://sodipodi.sourceforge.net/DTD/sodipodi-0.dtd"
   xmlns:inkscape="http://www.inkscape.org/namespaces/inkscape"
   version="1.1"
   id="Layer_1"
   x="0px"
   y="0px"
   viewBox="0 0 100 100"
   enable-background="new 0 0 100 100"
   xml:space="preserve"
   inkscape:version="0.48.4 r9939"
   width="100%"
   height="100%"
   sodipodi:docname="d-u-turn-icon.svg"><metadata
     id="metadata3889"><rdf:RDF><cc:Work
         rdf:about=""><dc:format>image/svg+xml</dc:format><dc:type
           rdf:resource="http://purl.org/dc/dcmitype/StillImage" /></cc:Work></rdf:RDF></metadata><defs
     id="defs3887" /><sodipodi:namedview
     pagecolor="#ffffff"
     bordercolor="#666666"
     borderopacity="1"
     objecttolerance="10"
     gridtolerance="10"
     guidetolerance="10"
     inkscape:pageopacity="0"
     inkscape:pageshadow="2"
     inkscape:window-width="753"
     inkscape:window-height="480"
     id="namedview3885"
     showgrid="false"
     inkscape:zoom="2.36"
     inkscape:cx="50"
     inkscape:cy="50"
     inkscape:window-x="49"
     inkscape:window-y="24"
     inkscape:window-maximized="0"
     inkscape:current-layer="Layer_1" /><path
     fill="#242423"
     d="M71.6,46.1c-1-10-9.6-17.7-19.6-17.7c-10.9,0-19.8,8.9-19.8,19.8v3.4l-7.2-9.4c-0.5-0.7-1.4-0.8-2.1-0.3  l-2.4,1.8c-0.3,0.2-0.5,0.6-0.6,1s0.1,0.8,0.3,1.1l13.8,17.9c0.3,0.4,0.7,0.6,1.2,0.6s0.9-0.2,1.2-0.6l1.2-1.5  c0-0.1,0.1-0.1,0.1-0.2L50.1,46c0.2-0.3,0.3-0.7,0.3-1.1s-0.3-0.8-0.6-1l-2.4-1.8c-0.7-0.5-1.6-0.4-2.1,0.3l-7.1,9.3v-3.4  c0-7.6,6.2-13.8,13.8-13.8s13.8,6.2,13.8,13.8v15.7c0,0.8,0.7,1.5,1.5,1.5h3c0.8,0,1.5-0.7,1.5-1.5V46.7  C71.8,46.5,71.7,46.3,71.6,46.1z"
     id="path3867"
     style="fill:#ffffff;fill-opacity:1" /></svg>