<?xml version="1.0" encoding="UTF-8" standalone="no"?>
<svg
   xmlns:dc="http://purl.org/dc/elements/1.1/"
   xmlns:cc="http://creativecommons.org/ns#"
   xmlns:rdf="http://www.w3.org/1999/02/22-rdf-syntax-ns#"
   xmlns:svg="http://www.w3.org/2000/svg"
   xmlns="http://www.w3.org/2000/svg"
   xmlns:sodipodi="http://sodipodi.sourceforge.net/DTD/sodipodi-0.dtd"
   xmlns:inkscape="http://www.inkscape.org/namespaces/inkscape"
   height="48"
   viewBox="0 0 48 48"
   width="48"
   id="svg3035"
   version="1.1"
   inkscape:version="0.48.4 r9939"
   sodipodi:docname="ic_location_selected.svg"
   style="fill:#000000">
  <metadata
     id="metadata3045">
    <rdf:RDF>
      <cc:Work
         rdf:about="">
        <dc:format>image/svg+xml</dc:format>
        <dc:type
           rdf:resource="http://purl.org/dc/dcmitype/StillImage" />
        <dc:title />
      </cc:Work>
    </rdf:RDF>
  </metadata>
  <defs
     id="defs3043" />
  <sodipodi:namedview
     pagecolor="#ffffff"
     bordercolor="#666666"
     borderopacity="1"
     objecttolerance="10"
     gridtolerance="10"
     guidetolerance="10"
     inkscape:pageopacity="0"
     inkscape:pageshadow="2"
     inkscape:window-width="1877"
     inkscape:window-height="1059"
     id="namedview3041"
     showgrid="false"
     inkscape:zoom="29.0625"
     inkscape:cx="22.203353"
     inkscape:cy="23.380077"
     inkscape:window-x="43"
     inkscape:window-y="21"
     inkscape:window-maximized="1"
     inkscape:current-layer="svg3035" />
  <path
     style="fill:#ffee75;fill-opacity:0.6756757;stroke:none"
     d="M 24,1.625 C 11.649913,1.625 1.625,11.649913 1.625,24 1.625,36.350087 11.649913,46.375 24,46.375 36.350087,46.375 46.375,36.350087 46.375,24 46.375,11.649913 36.350087,1.625 24,1.625 z M 24.6,14 c 3.87,0 7,3.13 7,7 0,5.25 -7,13 -7,13 0,0 -7,-7.75 -7,-13 0,-3.87 3.13,-7 7,-7 z"
     id="path3032"
     inkscape:connector-curvature="0"
     sodipodi:nodetypes="ssssssscss" />
  <path
     inkscape:connector-curvature="0"
     d="m 24.6,23.5 c -1.38,0 -2.5,-1.12 -2.5,-2.5 0,-1.38 1.12,-2.5 2.5,-2.5 1.38,0 2.5,1.12 2.5,2.5 0,1.38 -1.12,2.5 -2.5,2.5 z"
     id="path3037"
     style="fill:#ffef75;fill-opacity:0.67450982"
     sodipodi:nodetypes="sssss" />
</svg>
